<?xml version="1.0" encoding="utf-8"?>
<!-- Generator: Adobe Illustrator 24.3.0, SVG Export Plug-In . SVG Version: 6.00 Build 0)  -->
<svg version="1.1" id="Layer_1" xmlns="http://www.w3.org/2000/svg" xmlns:xlink="http://www.w3.org/1999/xlink" x="0px" y="0px"
	 viewBox="0 0 512 512" style="enable-background:new 0 0 512 512;" xml:space="preserve">
<style type="text/css">
	.st0{fill:#CC0000;}
</style>
<g id="XMLID_1_">
	<path id="XMLID_11_" class="st0" d="M16.16,192.89h110.1l-4.63,36.04H11.67L16.16,192.89z M9.57,242.12h110.38l-3.37,29.31H47.72
		l-1.82,14.02h69l-4.35,33.52H0.03L9.57,242.12z M128.08,228.94c0,0,0.7-12.34,3.79-18.65c2.95-6.03,6.73-10.38,13.18-14.02
		c3.79-2.1,10.66-3.37,10.66-3.37h198.31c0,0,8.27,0.14,11.92,1.54c3.79,1.54,9.4,3.93,12.34,11.08c2.95,6.87,2.24,9.12,2.24,15.99
		c0,6.73-0.14,7.29-0.14,7.29H128.08V228.94z M126.26,242.4H227.8c0,0,8.98,0,13.18,2.52c4.35,2.95,6.31,6.45,7.57,11.92
		c1.26,5.61-2.24,33.66-4.21,40.53c-2.24,6.73-4.77,13.04-15.29,18.23c-9.4,4.77-23.7,3.23-23.7,3.23H117.7l5.19-33.52h82.05
		l1.68-14.17h-56.66c0,0-9.26,1.26-17.81-6.17c-5.19-4.49-5.89-11.36-6.17-14.31C125.7,248.99,126.26,242.4,126.26,242.4z
		 M258.23,242.4H378c0,0-1.12,13.88-4.35,18.79c-3.23,5.05-6.17,7.85-11.64,9.12c-5.61,1.26-13.88,1.26-13.88,1.26H296.1l-5.47,47.4
		h-41.79L258.23,242.4z M386.14,229.22h124.4c0,0,2.38-10.94,1.12-17.67c-1.26-6.87-4.35-11.5-9.4-14.73
		c-6.59-4.63-18.79-3.79-18.65-3.79c-0.14,0-92.42,0-92.42,0L386.14,229.22z M384.46,242.4h41.23l-9.4,76.44h-40.95L384.46,242.4z
		 M467.34,242.82h40.81l-9.4,76.16h-40.67L467.34,242.82z"/>
</g>
</svg>
