<?xml version="1.0" encoding="utf-8"?>
<!-- Generator: Adobe Illustrator 24.1.2, SVG Export Plug-In . SVG Version: 6.00 Build 0)  -->
<!DOCTYPE svg PUBLIC "-//W3C//DTD SVG 1.1//EN" "http://www.w3.org/Graphics/SVG/1.1/DTD/svg11.dtd" [
	<!ENTITY ns_extend "http://ns.adobe.com/Extensibility/1.0/">
	<!ENTITY ns_ai "http://ns.adobe.com/AdobeIllustrator/10.0/">
	<!ENTITY ns_graphs "http://ns.adobe.com/Graphs/1.0/">
	<!ENTITY ns_vars "http://ns.adobe.com/Variables/1.0/">
	<!ENTITY ns_imrep "http://ns.adobe.com/ImageReplacement/1.0/">
	<!ENTITY ns_sfw "http://ns.adobe.com/SaveForWeb/1.0/">
	<!ENTITY ns_custom "http://ns.adobe.com/GenericCustomNamespace/1.0/">
	<!ENTITY ns_adobe_xpath "http://ns.adobe.com/XPath/1.0/">
]>
<svg version="1.1" xmlns:x="&ns_extend;" xmlns:i="&ns_ai;" xmlns:graph="&ns_graphs;"
	 xmlns="http://www.w3.org/2000/svg" xmlns:xlink="http://www.w3.org/1999/xlink" x="0px" y="0px" viewBox="0 0 750 750"
	 enable-background="new 0 0 750 750" xml:space="preserve">
<metadata>
	<sfw  xmlns="&ns_sfw;">
		<slices></slices>
		<sliceSourceBounds  bottomLeftOrigin="true" height="11111.312" width="7613.587" x="-4596.568" y="-2726"></sliceSourceBounds>
	</sfw>
</metadata>
<g id="FILL-BACKGROUND">
	<rect fill="#FFFFFF" width="750" height="750"/>
</g>
<g id="N-DIMENSIONS">
</g>
<g id="N-TEXT">
	<g id="MTEXT_51_">
		<g>
			<g>
				<path fill="#00B9D2" d="M131.788,281.123l-11.868,27.922h-6.716l12.006-27.186h-15.042v-5.566h21.62V281.123z"/>
				<path fill="#00B9D2" d="M150.096,286c0-1.441-0.345-2.576-1.035-3.404c-0.69-0.828-1.771-1.242-3.243-1.242
					c-3.036,0-4.646,2.07-4.83,6.209h-6.302c0.184-3.832,1.349-6.738,3.496-8.717c2.146-1.977,4.86-2.967,8.142-2.967
					c3.342,0,5.911,0.867,7.705,2.6s2.691,4.041,2.691,6.924c0,2.27-0.667,4.545-2.001,6.83s-3.029,4.387-5.083,6.303
					c-2.055,1.916-4.217,3.564-6.486,4.943h14.214v5.291h-22.862v-4.83C144.898,296.732,150.096,290.754,150.096,286z"/>
				<path fill="#00B9D2" d="M163.274,279.605c0.874-1.35,2.177-2.438,3.91-3.266c1.732-0.828,3.825-1.242,6.279-1.242
					c2.453,0,4.546,0.414,6.279,1.242c1.732,0.828,3.036,1.916,3.91,3.266s1.311,2.807,1.311,4.369c0,1.779-0.43,3.289-1.288,4.531
					c-0.859,1.242-2.147,2.17-3.864,2.783c1.932,0.736,3.411,1.803,4.439,3.197c1.027,1.396,1.541,3.09,1.541,5.084
					c0,2.146-0.537,3.994-1.61,5.543c-1.074,1.549-2.538,2.721-4.393,3.518c-1.856,0.797-3.964,1.197-6.325,1.197
					c-2.362,0-4.47-0.4-6.325-1.197c-1.856-0.797-3.312-1.969-4.37-3.518s-1.587-3.396-1.587-5.543c0-1.994,0.513-3.688,1.541-5.084
					c1.027-1.395,2.507-2.461,4.439-3.197c-1.718-0.613-3.013-1.547-3.887-2.805s-1.311-2.762-1.311-4.51
					C161.963,282.412,162.4,280.955,163.274,279.605z M169.093,303.064c1.073,0.951,2.53,1.428,4.37,1.428s3.304-0.477,4.393-1.428
					c1.088-0.949,1.633-2.236,1.633-3.863c0-1.656-0.56-2.92-1.679-3.795c-1.12-0.873-2.569-1.311-4.347-1.311
					c-1.748,0-3.182,0.438-4.301,1.311c-1.12,0.875-1.679,2.139-1.679,3.795C167.483,300.828,168.02,302.115,169.093,303.064z
					 M169.737,288.438c0.92,0.797,2.162,1.195,3.726,1.195c1.594,0,2.852-0.398,3.772-1.195s1.38-1.932,1.38-3.404
					s-0.468-2.613-1.403-3.428c-0.936-0.811-2.185-1.219-3.749-1.219c-1.534,0-2.768,0.408-3.703,1.219
					c-0.936,0.814-1.403,1.955-1.403,3.428S168.817,287.641,169.737,288.438z"/>
				<path fill="#00B9D2" d="M216.61,309.045l-5.796-8.188l-4.876,8.188h-7.13l8.418-13.293l-8.602-12.191h7.268l5.658,8.051
					l4.876-8.051h7.13L215,296.488l8.878,12.557H216.61z"/>
				<path fill="#00B9D2" d="M248.257,304.17c2.146,0,3.695-0.943,4.646-2.83c0.95-1.885,1.364-4.836,1.242-8.854
					c-0.491,1.471-1.449,2.645-2.875,3.518c-1.426,0.875-3.09,1.311-4.991,1.311c-3.128,0-5.589-0.941-7.383-2.828
					s-2.691-4.561-2.691-8.027c0-2.115,0.429-4.008,1.288-5.68c0.858-1.672,2.139-2.982,3.841-3.934s3.764-1.426,6.187-1.426
					c4.722,0,7.973,1.434,9.752,4.301c1.778,2.867,2.668,6.846,2.668,11.938c0,5.795-0.897,10.195-2.691,13.201
					s-4.792,4.508-8.993,4.508c-2.239,0-4.163-0.443-5.773-1.334c-1.61-0.889-2.852-2.094-3.726-3.611s-1.388-3.197-1.541-5.037
					h6.072C243.78,302.576,245.436,304.17,248.257,304.17z M252.099,282.664c-0.997-1.119-2.461-1.678-4.393-1.678
					c-1.656,0-2.975,0.49-3.956,1.471c-0.982,0.982-1.472,2.346-1.472,4.094c0,1.84,0.498,3.26,1.495,4.256
					c0.996,0.996,2.338,1.494,4.025,1.494c1.564,0,2.921-0.467,4.071-1.402c1.15-0.936,1.725-2.262,1.725-3.979
					S253.095,283.785,252.099,282.664z"/>
				<path fill="#00B9D2" d="M264.219,292.531c0-10.979,4.14-16.469,12.42-16.469c4.385,0,7.544,1.473,9.476,4.416
					c1.932,2.945,2.898,6.963,2.898,12.053c0,5.121-0.966,9.154-2.898,12.098c-1.932,2.945-5.091,4.416-9.476,4.416
					C268.359,309.045,264.219,303.541,264.219,292.531z M282.619,292.531c0-3.312-0.407-5.865-1.219-7.658
					c-0.812-1.795-2.4-2.691-4.761-2.691c-2.392,0-3.995,0.896-4.807,2.691c-0.813,1.793-1.219,4.346-1.219,7.658
					c0,3.344,0.406,5.912,1.219,7.705c0.812,1.795,2.415,2.691,4.807,2.691c2.361,0,3.948-0.896,4.761-2.691
					C282.212,298.443,282.619,295.875,282.619,292.531z"/>
				<path fill="#00B9D2" d="M325.122,284.803c1.717,1.043,3.059,2.553,4.025,4.531c0.966,1.979,1.449,4.301,1.449,6.969
					s-0.483,4.992-1.449,6.969c-0.966,1.979-2.308,3.49-4.025,4.531c-1.718,1.043-3.649,1.564-5.796,1.564
					c-2.147,0-3.979-0.514-5.497-1.541s-2.599-2.398-3.243-4.117v17.48H304.1v-37.629h6.486v5.291
					c0.644-1.717,1.725-3.082,3.243-4.094s3.35-1.518,5.497-1.518C321.472,283.24,323.404,283.762,325.122,284.803z
					 M312.449,290.898c-1.273,1.334-1.909,3.137-1.909,5.404c0,2.24,0.636,4.025,1.909,5.359c1.272,1.334,2.89,2.002,4.853,2.002
					c2.024,0,3.649-0.652,4.876-1.955c1.226-1.303,1.84-3.105,1.84-5.406c0-2.299-0.614-4.109-1.84-5.428
					c-1.227-1.318-2.852-1.979-4.876-1.979C315.339,288.896,313.721,289.564,312.449,290.898z"/>
				<path fill="#00B9D2" d="M350.697,309.045l-5.796-8.188l-4.876,8.188h-7.13l8.418-13.293l-8.602-12.191h7.268l5.658,8.051
					l4.876-8.051h7.13l-8.556,12.928l8.878,12.557H350.697z"/>
			</g>
		</g>
	</g>
</g>
<g id="AG-DETAIL-DIAGRAM">
</g>
<g id="AG-DETAILS">
</g>
<g id="AG-DIGITAL">
</g>
<g id="AG-OUTLINE">
	<g id="POLYLINE_6_">
		
			<rect x="110.528" y="342.304" fill="none" stroke="#00B9D2" stroke-width="3.5" stroke-linecap="round" stroke-linejoin="round" stroke-miterlimit="10" width="528.945" height="65.391"/>
	</g>
</g>
</svg>
