<?xml version="1.0" encoding="utf-8"?>
<!-- Generator: Adobe Illustrator 24.3.0, SVG Export Plug-In . SVG Version: 6.00 Build 0)  -->
<svg version="1.1" id="Layer_1" xmlns="http://www.w3.org/2000/svg" xmlns:xlink="http://www.w3.org/1999/xlink" x="0px" y="0px"
	 viewBox="0 0 512 512" style="enable-background:new 0 0 512 512;" xml:space="preserve">
<style type="text/css">
	.st0{fill:#FFFFFF;}
	.st1{fill:#838181;}
</style>
<g id="XMLID_1_">
	<path id="XMLID_5_" d="M356.44,204.1v101.56H248.57V204.1H356.44z M316.46,218.27l-1.4-0.28l-0.56-0.14l-2.52-0.28l-1.68-0.14
		l-2.95-0.14h-1.12l-2.38,0.14l-1.26,0.14l-1.82,0.14l-0.56,0.14l-0.7,0.28l-0.7,0.14l-0.98,0.14l-1.26,0.28
		c-2.52,0.56-4.91,1.26-7.15,2.1c-1.12,0.42-2.24,0.84-3.23,1.4l-2.52,1.26l-2.24,1.4l-1.26,0.84l-0.98,0.7l-1.96,1.54l-1.68,1.54
		l-1.26,1.4l-1.26,1.54l-1.26,1.68l-0.84,1.26l-0.56,0.98c-1.12,1.82-2.1,3.79-2.95,5.89c-0.98,2.67-1.68,5.47-2.1,8.42l-0.28,2.95
		v2.24v1.68l0.14,1.82v0.42l0.28,1.96l0.14,0.84l0.42,1.68l0.56,2.1l0.84,2.38c0.56,1.26,1.12,2.38,1.68,3.51l1.12,1.96l0.98,1.4
		l1.26,1.68l1.4,1.68l1.68,1.82l0.28,0.28l1.54,1.4l1.26,0.98l1.26,0.98l1.68,1.12l2.1,1.26c1.4,0.84,2.95,1.54,4.77,2.24l1.96,0.7
		l2.1,0.7c1.26,0.42,2.52,0.7,3.93,0.98c1.12,0.28,2.24,0.42,3.51,0.56c1.12,0.14,2.38,0.28,3.65,0.28l1.82,0.14h0.84
		c2.24,0,4.35-0.14,6.31-0.28h0.42l2.24-0.28l3.09-0.42l1.82-0.42l2.67-0.56l1.82-0.56l1.96-0.7l0.56-0.28l1.26-0.42l2.38-0.98
		l1.68-0.7l1.68-0.84l0.7-0.28v-13.89l-0.42,0.28l-0.98,0.56l-2.81,1.68l-2.95,1.54c-1.68,0.84-3.37,1.54-4.91,2.1
		c-2.95,1.12-5.75,1.82-8.28,2.24l-0.84,0.14l-1.96,0.28l-2.67,0.14h-1.54l-3.09-0.14c-1.26-0.14-2.38-0.14-3.65-0.42
		c-1.96-0.42-4.07-0.84-6.03-1.54l-0.84-0.42l-0.56-0.28l-0.98-0.42l-1.96-0.98l-0.98-0.56l-0.98-0.7l-1.26-0.84l-1.12-0.84
		l-0.42-0.42l-0.28-0.14l-0.14-0.14l0.28-0.14l-1.68-1.82l-0.84-1.12l-0.7-0.98l-0.56-0.98l-0.84-1.4l-0.56-1.26l-0.84-2.1
		l-0.42-1.54c-0.42-1.4-0.56-2.81-0.7-3.93l-0.14-1.26v-1.4v-0.84c0-0.84,0.14-1.82,0.28-2.95l0.42-2.24l0.42-1.54l0.56-1.54
		l0.42-0.98l0.7-1.4l0.56-1.12l1.54-2.38l0.7-0.84l0.98-1.12l0.56-0.56c2.52-2.52,5.33-4.35,8.42-5.75l1.4-0.56l1.4-0.56l1.54-0.42
		l1.4-0.42l1.4-0.28l1.54-0.28l1.54-0.14l2.95-0.14h0.98l2.1,0.14l1.4,0.14l2.52,0.28l2.1,0.42l2.67,0.56l1.4,0.42l1.68,0.56
		l1.12,0.42l1.96,0.84l2.52,1.12l1.96,0.84l1.4,0.7l1.96,0.98l1.4,0.84v-13.47c0,0-0.84-0.42-2.24-0.84l-2.24-0.84l-1.54-0.56
		l-1.4-0.42l-1.54-0.56l-1.26-0.42l-0.42-0.14l-1.26-0.28l-1.54-0.42l-0.98-0.28l-1.68-0.42L316.46,218.27"/>
	<path id="XMLID_6_" d="M165.66,260.07v19.92h12.91h0.7l1.82-0.14c1.4-0.14,3.23-0.42,5.05-0.98c1.68-0.56,3.23-1.4,4.49-2.52
		l1.12-1.4c0.98-1.54,1.26-3.23,1.4-4.21v-0.7v-0.42l-0.28-1.96l-1.54-3.09l-0.56-0.56l-1.12-0.98l-2.38-1.4
		c-1.12-0.56-2.52-0.84-3.93-1.12l-2.24-0.28l-1.54-0.14h-1.4L165.66,260.07"/>
	<path id="XMLID_7_" d="M165.66,229.77v18.94h6.31h0.98l1.4-0.14c1.26-0.14,3.09-0.28,4.91-0.84l0.98-0.28
		c1.4-0.56,2.81-1.26,3.79-2.24l1.68-2.67l0.7-2.81v-0.98v-0.84c0-0.84-0.28-2.1-0.84-3.51l-1.26-1.82l-2.52-1.68
		c-1.82-0.84-3.79-1.12-5.47-1.26l-1.96-0.14L165.66,229.77L165.66,229.77z"/>
	<path id="XMLID_10_" d="M232.15,204.1v101.56H124.28V204.1H232.15z M152.62,218.41v73.08h27.49c0,0,13.47,0.42,20.76-7.01
		c6.03-6.03,5.61-13.05,5.61-13.05s0.42-7.29-5.19-12.91c-4.77-4.77-10.8-6.03-10.8-6.03s2.81-1.26,4.91-3.37
		c0.98-0.98,4.49-4.21,4.49-11.92S194.7,225,194.7,225s-5.61-6.73-18.38-6.73L152.62,218.41L152.62,218.41z"/>
	<path id="XMLID_11_" d="M41.38,260.07v19.92h12.91h0.7l1.82-0.14c1.4-0.14,3.23-0.42,5.05-0.98c1.68-0.56,3.23-1.4,4.35-2.52
		l1.12-1.4c0.98-1.54,1.26-3.23,1.4-4.21v-0.7v-0.42l-0.28-1.96l-1.54-3.09L66.35,264l-1.12-0.98l-2.38-1.4
		c-1.12-0.56-2.38-0.84-3.93-1.12l-2.1-0.28l-1.54-0.14h-1.4H41.38"/>
	<path id="XMLID_12_" d="M41.38,229.77v18.94h6.31h0.98l1.4-0.14c1.26-0.14,3.09-0.28,4.91-0.84l0.98-0.28
		c1.4-0.56,2.81-1.26,3.79-2.24l1.68-2.67l0.7-2.81v-0.98v-0.84c0-0.84-0.14-2.1-0.84-3.51l-1.26-1.82l-2.52-1.68
		c-1.82-0.84-3.79-1.12-5.47-1.26l-1.96-0.14L41.38,229.77"/>
	<path id="XMLID_15_" d="M107.87,204.1v101.56H0V204.1H107.87z M28.34,218.41v73.08h27.49c0,0,13.47,0.42,20.76-7.01
		c6.03-6.03,5.61-13.05,5.61-13.05s0.42-7.29-5.19-12.91c-4.77-4.77-10.8-6.03-10.8-6.03s2.81-1.26,4.91-3.37
		c0.98-0.98,4.49-4.21,4.49-11.92S70.42,225,70.42,225s-5.61-6.73-18.38-6.73L28.34,218.41L28.34,218.41z"/>
	<polygon id="XMLID_16_" points="440.32,184.18 512,256 440.32,327.82 368.64,256 	"/>
	<polygon id="XMLID_17_" class="st0" points="433.17,235.8 441.02,228.51 441.02,283.21 433.17,274.94 433.17,259.51 402.45,259.51 
		402.45,283.21 394.59,275.08 394.59,235.8 402.45,228.51 402.45,252.21 433.17,252.21 	"/>
	<path id="XMLID_18_" class="st0" d="M441.02,283.21L441.02,283.21l7.86-7.01h9.96c3.93,0,7.01-0.28,9.12-0.7
		c2.24-0.56,3.93-1.26,5.47-2.1c1.4-0.84,2.81-1.82,3.93-3.09c3.93-3.93,5.75-8.84,5.75-14.87c0-5.89-1.96-10.66-5.89-14.31
		c-1.4-1.4-3.09-2.52-5.05-3.37c-1.82-0.84-3.65-1.4-5.33-1.82c-1.68-0.28-4.35-0.42-8.14-0.42h-9.82l-7.72-7.01h18.24
		c7.43,0,13.33,1.12,17.67,3.37c4.35,2.24,7.86,5.47,10.38,9.82c2.52,4.35,3.79,9.12,3.79,14.17c0,3.65-0.7,7.15-2.1,10.52
		c-1.4,3.37-3.37,6.31-6.03,8.84c-2.67,2.67-5.75,4.63-9.26,5.89c-2.1,0.84-3.93,1.4-5.61,1.68c-1.68,0.28-5.05,0.42-9.96,0.42
		L441.02,283.21h17.25c4.91,0,8.14-0.14,9.96-0.42c1.68-0.28,3.65-0.84,5.61-1.68c3.51-1.26,6.59-3.23,9.26-5.89
		c2.67-2.52,4.63-5.47,6.03-8.84c1.4-3.37,2.1-6.87,2.1-10.52c0-5.19-1.26-9.82-3.79-14.17c-2.52-4.35-6.03-7.57-10.38-9.82
		c-4.35-2.24-10.24-3.37-17.67-3.37h-18.38l7.72,7.01h9.82c3.79,0,6.45,0.14,8.14,0.42c1.68,0.28,3.51,0.84,5.33,1.82
		c1.96,0.84,3.65,2.1,5.05,3.37c3.93,3.65,5.89,8.42,5.89,14.31c0,6.03-1.96,10.94-5.75,14.87c-1.26,1.12-2.52,2.24-3.93,3.09
		c-1.4,0.84-3.23,1.54-5.47,2.1c-2.1,0.56-5.19,0.7-9.12,0.7h-9.96L441.02,283.21z"/>
	<path id="XMLID_19_" class="st0" d="M441.02,283.21l7.86-7.01h9.96c3.93,0,7.01-0.28,9.12-0.7c2.24-0.56,3.93-1.26,5.47-2.1
		c1.4-0.84,2.81-1.82,3.93-3.09c3.93-3.93,5.75-8.84,5.75-14.87c0-5.89-1.96-10.66-5.89-14.31c-1.4-1.4-3.09-2.52-5.05-3.37
		c-1.82-0.84-3.65-1.4-5.33-1.82c-1.68-0.28-4.35-0.42-8.14-0.42h-9.82l-7.72-7.01h18.24c7.43,0,13.33,1.12,17.67,3.37
		c4.35,2.24,7.86,5.47,10.38,9.82c2.52,4.35,3.79,9.12,3.79,14.17c0,3.65-0.7,7.15-2.1,10.52c-1.4,3.37-3.37,6.31-6.03,8.84
		c-2.67,2.67-5.75,4.63-9.26,5.89c-2.1,0.84-3.93,1.4-5.61,1.68c-1.68,0.28-5.05,0.42-9.96,0.42L441.02,283.21L441.02,283.21z"/>
	<polygon id="XMLID_20_" class="st1" points="448.88,235.52 441.02,228.51 441.02,283.21 448.88,276.2 448.88,259.51 448.88,252.21 
			"/>
	<polygon id="XMLID_21_" class="st1" points="402.45,259.51 402.45,283.21 410.16,276.2 410.16,259.51 	"/>
	<polygon id="XMLID_22_" class="st1" points="410.44,252.21 410.3,235.8 402.45,228.51 402.45,252.21 	"/>
</g>
</svg>
