<svg xmlns="http://www.w3.org/2000/svg" height="800" width="1200" xml:space="preserve" y="0" x="0" id="Layer_2" version="1.1" viewBox="-114.53505 -41.47475 992.6371 248.8485"><style id="style1113" type="text/css">.st0{stroke:#000;stroke-miterlimit:10}</style><path id="polygon1115" d="M42.936 165.018l8.367-15.261 8.367 15.261h42.935L51.303 71.441 0 165.018z"/><path id="polygon1117" d="M398.692 165.018l8.367-15.261 8.367 15.261h42.935L407.06 71.441l-51.303 93.577z"/><path id="polygon1119" d="M165.797 165.021l-23.34-18.5v18.5h-36.99v-93.82l53.28 39.87v-37.87h37.22v91.82z"/><path id="polygon1121" d="M730.32 165.021l-23.34-18.5v18.5h-36.99v-93.82l53.28 39.87v-37.87h37.22v91.82z"/><path id="rect1123" d="M205.939 73.202h37.198v91.816h-37.198z"/><path id="rect1125" d="M527.131 73.202h37.198v91.816h-37.198z"/><path id="polygon1127" d="M253.333 165.018h36.703v-19l12.952 7.936 12.951-7.936v19h36.703V73.202l-49.654 37.156-49.655-37.156z"/><path id="polygon1129" d="M440.035 100.693H461.9v64.325h37.2v-64.325h21.866V73.202h-80.931z"/><path id="path1131" d="M617.307 71.44c-26.084 0-47.23 21.146-47.23 47.23 0 26.084 21.146 47.23 47.23 47.23 26.084 0 47.229-21.146 47.229-47.23 0-26.084-21.145-47.23-47.23-47.23zm0 56.94c-5.364 0-9.712-4.347-9.712-9.71s4.348-9.711 9.712-9.711c5.363 0 9.71 4.348 9.71 9.71 0 5.364-4.347 9.712-9.71 9.712z"/><path id="path1133" d="M7.816 35.303l-5.284 8.174s5.697 6.276 16.431 6.276c10.734 0 16.019-7.35 16.019-14.45s-5.71-12.925-13.046-15.44c-4.817-1.652-8.02-3.838-8.02-6.268 0-2.43 1.827-3.806 4.84-3.806 5.134 0 10.198 4.79 10.198 4.79l5.615-7.597S28.87.459 18.757.459C8.642.46 3.275 7.808 3.275 14.58c0 5.669 3.637 10.685 13.707 14.531 7.348 2.808 6.688 5.23 6.688 7.101 0 1.872-1.597 3.633-4.913 3.633-6.041 0-10.94-4.541-10.94-4.541z"/><path id="path1135" d="M736.402 35.303l-5.284 8.174s5.697 6.276 16.43 6.276c10.735 0 16.02-7.35 16.02-14.45s-5.71-12.925-13.047-15.44c-4.816-1.652-8.019-3.838-8.019-6.268 0-2.43 1.827-3.806 4.84-3.806 5.134 0 10.198 4.79 10.198 4.79l5.614-7.597S757.457.459 747.343.459c-10.115 0-15.482 7.349-15.482 14.12 0 5.669 3.637 10.685 13.706 14.531 7.349 2.808 6.688 5.23 6.688 7.101 0 1.872-1.596 3.633-4.912 3.633-6.042 0-10.94-4.541-10.94-4.541z"/><path id="path1137" d="M85.173.5C71.56.5 60.526 11.535 60.526 25.147c0 13.612 11.035 24.646 24.647 24.646 13.612 0 24.646-11.034 24.646-24.646S98.785.5 85.173.5zm0 39.078c-7.97 0-14.432-6.46-14.432-14.431 0-7.97 6.461-14.432 14.432-14.432 7.97 0 14.431 6.461 14.431 14.432 0 7.97-6.46 14.431-14.431 14.431z"/><path id="path1139" d="M447.117 35.011l7.22 7.21a24.49 24.49 0 01-17.75 7.57c-13.61 0-24.65-11.03-24.65-24.64 0-13.62 11.04-24.65 24.65-24.65 6.99 0 13.3 2.91 17.77 7.59l-7.22 7.21a14.4 14.4 0 00-10.55-4.59c-7.97 0-14.43 6.47-14.43 14.44s6.46 14.43 14.43 14.43c4.15 0 7.9-1.76 10.53-4.57z"/><path id="polygon1141" class="st0" d="M179.229 48.464h-3.083L148.844 22v26.542h-10.57V.5h3.083l27.303 26.464V1.422h10.569z"/><path id="polygon1143" class="st0" d="M247.926 1.367h-12.55l-9.248 14.037-9.248-14.037h-12.55l16.514 23.78v23.395h10.568V25.147z"/><path id="rect1145" class="st0" d="M371.318.961h10.569V48.08h-10.569z"/><path id="path1147" d="M575.357.961v29.62c0 10.59-8.58 19.17-19.16 19.17-10.59 0-19.17-8.58-19.17-19.17V.961h10.57v29.62a8.6 8.6 0 008.6 8.6 8.6 8.6 0 008.6-8.6V.961z" class="st0"/><path id="path1149" d="M329.087.961h-17.42v47.12h10.57v-16.18h6.85c8.54 0 15.47-6.93 15.47-15.47 0-8.54-6.93-15.47-15.47-15.47zm0 20.37h-6.85v-9.8h6.85c2.71 0 4.9 2.19 4.9 4.9 0 2.7-2.19 4.9-4.9 4.9z" class="st0"/><path id="polygon1151" class="st0" d="M489.026.961h-10.763V11.53h10.763v36.55h10.57V11.53h10.763V.961h-10.764z"/><path id="path1153" d="M632.897 29.771c4.44-1.18 8.04-4.4 9.76-8.59.71-1.72 1.1-3.6 1.1-5.57 0-1.97-.39-3.85-1.1-5.57-2.19-5.33-7.43-9.08-13.55-9.08h-21.51v47.12h10.57v-17.81h5.45l9.57 17.81h10.57zm-14.73-8.59v-11.14h9.94c3.08 0 5.57 2.5 5.57 5.57 0 3.08-2.49 5.57-5.57 5.57z" class="st0"/><path id="polygon1155" class="st0" d="M684.219.961H673.65v47.12h30.771V37.51h-20.202v-7.706h15.688V19.236h-15.688V11.53h20.202V.961z"/></svg>